<svg xmlns="http://www.w3.org/2000/svg" version="1.1" xmlns:xlink="http://www.w3.org/1999/xlink" xmlns:svgjs="http://svgjs.com/svgjs" width="1920" height="1080" preserveAspectRatio="none" viewBox="0 0 1920 1080"><g mask="url(&quot;#SvgjsMask2551&quot;)" fill="none"><rect width="1920" height="1080" x="0" y="0" fill="rgba(255, 255, 255, 1)"></rect><path d="M105 1080L1185 0L2001 0L921 1080z" fill="url(#SvgjsLinearGradient2552)"></path><path d="M725.6 1080L1805.6 0L2705.6 0L1625.6 1080z" fill="url(#SvgjsLinearGradient2552)"></path><path d="M1870 1080L790 0L322 0L1402 1080z" fill="url(#SvgjsLinearGradient2553)"></path><path d="M1199.4 1080L119.40000000000009 0L-807.5999999999999 0L272.4000000000001 1080z" fill="url(#SvgjsLinearGradient2553)"></path><path d="M1095.6801697681383 1080L1920 255.68016976813828L1920 1080z" fill="url(#SvgjsLinearGradient2552)"></path><path d="M0 1080L824.3198302318617 1080L 0 255.68016976813828z" fill="url(#SvgjsLinearGradient2553)"></path></g><defs><mask id="SvgjsMask2551"><rect width="1920" height="1080" fill="#ffffff"></rect></mask><linearGradient x1="0%" y1="100%" x2="100%" y2="0%" id="SvgjsLinearGradient2552"><stop stop-color="rgba(43, 182, 186, 1)" offset="0"></stop><stop stop-opacity="0" stop-color="rgba(43, 182, 186, 1)" offset="0.66"></stop></linearGradient><linearGradient x1="100%" y1="100%" x2="0%" y2="0%" id="SvgjsLinearGradient2553"><stop stop-color="rgba(43, 182, 186, 1)" offset="0"></stop><stop stop-opacity="0" stop-color="rgba(43, 182, 186, 1)" offset="0.66"></stop></linearGradient></defs></svg>