<svg version="1.2" xmlns="http://www.w3.org/2000/svg" viewBox="0 0 1200 1200" width="1200" height="1200"><style>.a{fill:#fff}.b{fill:#092a4a}</style><path class="a" d="m0 120c0-66.3 53.7-120 120-120h960c66.3 0 120 53.7 120 120v960c0 66.3-53.7 120-120 120h-960c-66.3 0-120-53.7-120-120z"/><path fill-rule="evenodd" class="b" d="m599 120.1c11.2-0.1 16.8 0.3 24 1.5 5.2 0.9 13 2.5 17.4 3.6 4.4 1.2 11.4 3.4 15.6 5 4.2 1.6 11.2 4.6 15.6 6.8 4.4 2.2 11 6 14.8 8.4 3.8 2.4 9.7 6.7 13.2 9.4 3.5 2.7 10.2 9 14.8 13.7 4.6 4.8 10.1 10.9 12.1 13.5 2.1 2.6 5.8 8 8.4 12 2.5 3.9 6.9 11.8 9.6 17.6 2.7 5.8 6.2 14.3 7.7 19.2 1.6 4.9 3.6 12.6 4.5 17.2 0.9 4.6 2 11.7 2.5 15.6 0.4 3.9 0.8 11.3 0.8 16.2 0 4.9-0.4 12.5-0.9 16.8-0.4 4.3-1.5 11.4-2.5 15.8-0.8 4.4-3 12.3-4.7 17.6-1.7 5.3-5.4 14.3-8.2 20-2.8 5.7-7.3 13.7-9.9 17.6-2.6 3.9-6.6 9.5-9 12.4-2.3 2.9-6.8 7.8-9.9 11.1-3.1 3.2-8.9 8.6-12.9 11.9-4 3.4-10.2 8.1-14 10.6-3.8 2.4-10.8 6.5-15.6 9-4.8 2.4-12.2 5.7-16.4 7.2-4.2 1.6-11 3.8-15.2 4.8-4.2 1.2-11 2.7-15.2 3.5-6.6 1.2-14.6 1.4-118 2.4l-8 2.1c-4.4 1.2-10.9 3.6-14.4 5.3-3.5 1.8-8.7 4.9-11.6 7-2.9 2.1-7 5.4-9.1 7.4-2.2 2-6.1 6.6-8.7 10.1-2.6 3.5-6.2 9.4-8 13.2-1.8 3.8-4.1 10.2-7.3 22l-0.5 55.2c-0.5 45.9-0.7 56.4-1.8 62.4-0.8 4-2.3 10.8-3.4 15.2-1.2 4.4-3.4 11.4-5 15.6-1.5 4.2-4.8 11.6-7.2 16.4-2.5 4.8-6.6 11.8-9 15.6-2.5 3.8-6.4 9.1-8.8 12-2.3 2.9-6.8 7.8-9.9 11.1-3.1 3.2-9 8.6-12.9 11.9-3.9 3.4-10.5 8.2-14.4 10.8-3.9 2.6-11.9 7.1-17.6 9.9-5.7 2.8-14.7 6.5-20 8.2-5.3 1.7-13.4 3.9-18 4.8-4.6 0.9-11.7 2-15.6 2.5-3.9 0.4-11.3 0.8-16.2 0.8-4.9 0-12.5-0.4-16.8-0.9-4.3-0.4-11.4-1.5-15.8-2.5-4.4-0.8-12.3-3-17.6-4.7-5.3-1.7-14.2-5.4-20-8.2-5.8-2.8-13.6-7.3-17.6-9.9-4-2.6-10.4-7.4-14.4-10.8-4-3.2-9.9-8.8-13.3-12.3-3.3-3.5-8-8.8-10.5-11.9-2.4-3.1-6.5-8.8-9.1-12.8-2.5-4-6.9-11.9-9.6-17.6-2.7-5.7-6.1-13.8-7.4-18-1.4-4.2-3-9.9-3.6-12.8-0.7-2.9-1.9-9.5-2.9-14.8-1.1-6.9-1.6-13.2-1.6-22.4 0-8.7 0.5-16 1.6-22.8 0.8-5.5 2.5-13.6 3.6-18 1.2-4.4 3.4-11.4 5-15.6 1.6-4.2 4.6-11.2 6.8-15.6 2.2-4.4 6-11 8.4-14.8 2.4-3.8 6.7-9.7 9.4-13.2 2.7-3.5 9-10.2 13.7-14.8 4.8-4.6 10.9-10.1 13.5-12.1 2.6-2.1 8-5.8 12-8.4 4-2.5 11.8-6.9 17.6-9.6 5.8-2.7 14.3-6.2 19.2-7.7 4.9-1.6 12.6-3.6 17.2-4.5 4.6-0.9 11.7-2 15.6-2.5 4.4-0.5 40.4-0.8 176.4-0.8v-84.4c0-54.1 0.3-87.2 0.9-92.2 0.4-4.3 1.5-11.4 2.5-15.8 0.8-4.4 3-12.3 4.7-17.6 1.7-5.3 5.3-14.1 8-19.6 2.6-5.5 6.9-13 9.3-16.8 2.4-3.8 6.7-9.7 9.4-13.2 2.7-3.5 9-10.2 13.7-14.8 4.8-4.6 10.9-10.1 13.5-12.1 2.6-2.1 8.1-5.8 12-8.4 3.9-2.5 11.9-6.9 17.6-9.6 5.7-2.7 14.4-6.2 19.2-7.7 4.8-1.6 12.8-3.6 17.6-4.5 4.8-0.9 10.4-2 12.4-2.4 2-0.4 10.2-0.7 18.2-0.8zm319.6 320c5.6 0 13.7 0.3 18 0.8 4.3 0.4 11.4 1.5 15.8 2.5 4.4 0.8 12.3 3 17.6 4.7 5.3 1.7 14.1 5.3 19.6 8 5.5 2.6 13 6.9 16.8 9.3 3.8 2.4 9.7 6.7 13.2 9.4 3.5 2.7 10.2 9 14.8 13.7 4.6 4.8 10.1 10.9 12.1 13.5 2.1 2.6 5.8 8 8.4 12 2.5 3.9 6.9 11.9 9.6 17.6 2.7 5.7 6.1 13.8 7.4 18 1.4 4.2 3 9.9 3.6 12.8 0.7 2.9 1.9 9.5 2.9 14.8 1.1 6.9 1.6 13.2 1.6 22.4 0 8.7-0.5 16-1.6 22.8-0.8 5.5-2.5 13.6-3.6 18-1.2 4.4-3.4 11.4-5 15.6-1.5 4.2-4.8 11.6-7.2 16.4-2.5 4.8-6.6 11.8-9 15.6-2.5 3.8-6.4 9.1-8.8 12-2.3 2.9-6.8 7.8-9.9 11.1-3.1 3.2-8.9 8.6-12.9 11.9-4 3.4-10.4 8.2-14.4 10.8-4 2.6-11.8 7.1-17.6 9.9-5.8 2.8-14.7 6.5-20 8.2-5.3 1.7-13.4 3.9-18 4.8-4.6 0.9-11.6 2-15.6 2.5-4.4 0.5-40.4 0.8-176.4 0.8v84.4c0 54.1-0.3 87.2-0.9 92.2-0.4 4.3-1.5 11.4-2.5 15.8-0.8 4.4-3 12.3-4.7 17.6-1.7 5.3-5.4 14.2-8.2 20-2.8 5.8-7.3 13.6-9.9 17.6-2.6 4-7.4 10.4-10.8 14.4-3.3 4-8.7 9.8-11.9 12.9-3.3 3.1-8.2 7.6-11.1 9.9-2.9 2.4-8.2 6.3-12 8.8-3.8 2.4-10.8 6.5-15.6 9-4.8 2.4-12.2 5.7-16.4 7.2-4.2 1.6-11.2 3.8-15.6 4.9-4.4 1.1-12.2 2.8-17.4 3.7-6.9 1.2-13 1.6-23 1.6-9.8 0-16.2-0.4-23-1.6-5.2-0.9-13-2.5-17.4-3.6-4.4-1.2-11.4-3.4-15.6-5-4.2-1.5-11.6-4.8-16.4-7.2-4.9-2.5-11.8-6.6-15.6-9-3.8-2.5-10.1-7.2-14-10.6-3.9-3.2-9.9-8.8-13.3-12.3-3.3-3.5-8-8.9-10.5-11.9-2.4-3-6.5-8.8-9.1-12.8-2.5-4-6.9-11.8-9.6-17.6-2.7-5.8-6.2-14.4-7.7-19.2-1.6-4.8-3.6-12.6-4.5-17.2-0.9-4.6-2-11.6-2.5-15.6-0.4-4-0.8-11.3-0.8-16.2 0-4.9 0.4-12.5 0.9-16.8 0.4-4.3 1.5-11.4 2.5-15.8 0.8-4.4 3-12.3 4.7-17.6 1.7-5.3 5.3-14.1 8-19.6 2.6-5.5 6.9-13 9.3-16.8 2.4-3.8 6.7-9.7 9.4-13.2 2.7-3.5 9-10.2 13.7-14.8 4.8-4.6 10.9-10.1 13.5-12.1 2.6-2.1 8.1-5.8 12-8.4 3.9-2.5 11.9-6.9 17.6-9.6 5.7-2.7 14.4-6.2 19.2-7.7 4.8-1.6 12.6-3.6 17.2-4.4 4.6-0.9 9.5-2 10.8-2.2 1.3-0.3 27.4-0.9 58-1.1 53.7-0.6 55.8-0.7 62.4-2.4 3.8-1 10.8-3.7 15.6-6 5-2.4 11.4-6.4 14.8-9.1 3.3-2.6 7.8-6.9 10.1-9.5 2.2-2.5 5.7-7.3 7.7-10.3 2-3.1 4.8-8.2 6.1-11.2 1.3-3.1 3.2-8.6 4.2-12.4 1.7-6.6 1.8-8.3 2.3-62 0.5-45.9 0.7-56.4 1.8-62.4 0.8-4 2.3-10.8 3.4-15.2 1.2-4.4 3.4-11.4 5-15.6 1.6-4.2 4.6-11.2 6.8-15.6 2.2-4.4 6-11 8.4-14.8 2.4-3.8 6.7-9.7 9.4-13.2 2.7-3.5 9-10.2 13.7-14.8 4.8-4.6 10.9-10.1 13.5-12.1 2.6-2.1 8-5.8 12-8.4 4-2.5 11.9-6.9 17.6-9.6 5.7-2.7 14.4-6.2 19.2-7.7 4.8-1.6 12.6-3.6 17.2-4.5 4.6-1 11.1-2 14.4-2.4 3.3-0.4 10.6-0.7 16.2-0.8zm-411.4 75.1h54.4l1.4 5c0.9 2.8 9.2 28.9 18.6 58.2 9.4 29.3 17.2 53.4 17.4 53.6 0.1 0.2 0.5 0 0.8-0.6 0.4-0.4 8.9-26.8 37.4-116.2h54v170.4h-41.2l0.6-32.2c0.4-17.7 1.2-44.1 2-58.8 0.9-16.8 1.1-26.2 0.6-25.7-0.4 0.5-9.6 26.8-40.1 116.3l-13.7 0.2c-7.6 0.1-13.8 0.1-13.8 0 0-0.1-8.8-26.3-19.7-58.2-10.8-31.9-20-58.6-20.4-59.2-0.5-0.8-0.6-0.2-0.7 2 0 1.8 0.9 21 2 42.8 1.1 21.8 2 47 2 72.8h-41.6z"/></svg>