<svg version="1.2" xmlns="http://www.w3.org/2000/svg" viewBox="0 0 1200 1200" width="1200" height="1200"><style>.a{fill:#fff}</style><path fill-rule="evenodd" class="a" d="m598.8 0.1c13.9-0.1 21 0.4 30 1.9 6.4 1.1 16.2 3.1 21.7 4.5 5.5 1.5 14.3 4.2 19.5 6.2 5.2 2 14 5.8 19.5 8.5 5.5 2.8 13.8 7.5 18.5 10.5 4.7 3.1 12.1 8.4 16.5 11.8 4.4 3.4 12.7 11.2 18.5 17.1 5.8 6 12.6 13.6 15.1 16.9 2.6 3.3 7.3 10 10.5 15 3.2 5 8.6 14.8 12 22 3.4 7.2 7.8 17.9 9.7 24 1.9 6.1 4.4 15.7 5.6 21.5 1.1 5.8 2.5 14.6 3.1 19.5 0.5 4.9 1 14.1 1 20.3 0 6.1-0.5 15.6-1.1 20.9-0.5 5.4-1.9 14.3-3.1 19.8-1.1 5.5-3.8 15.4-5.9 22-2.2 6.6-6.8 17.9-10.3 25-3.5 7.1-9.1 17.1-12.3 22-3.3 4.9-8.3 11.9-11.3 15.5-2.9 3.6-8.5 9.8-12.4 13.9-3.9 4-11.1 10.7-16.1 14.9-4.9 4.2-12.8 10.1-17.5 13.2-4.7 3-13.4 8.1-19.5 11.2-6 3.1-15.3 7.2-20.5 9.1-5.2 2-13.8 4.7-19 6-5.2 1.4-13.8 3.3-19 4.3-8.3 1.5-18.3 1.8-147.5 3l-10 2.7c-5.5 1.5-13.6 4.5-18 6.6-4.4 2.2-10.9 6.1-14.5 8.7-3.6 2.6-8.7 6.8-11.4 9.3-2.7 2.5-7.6 8.2-10.9 12.6-3.2 4.4-7.7 11.8-9.9 16.5-2.3 4.7-5.2 12.8-9.2 27.5l-0.6 69c-0.6 57.4-0.9 70.5-2.3 78-0.9 5-2.8 13.5-4.2 19-1.5 5.5-4.2 14.3-6.2 19.5-1.9 5.2-6 14.5-9.1 20.5-3.1 6-8.2 14.8-11.2 19.5-3.1 4.7-8 11.4-11 15-2.9 3.6-8.5 9.8-12.4 13.9-3.9 4-11.1 10.7-16.1 14.9-4.9 4.2-13 10.2-18 13.5-4.9 3.2-14.8 8.8-22 12.3-7.1 3.5-18.4 8.1-25 10.3-6.6 2.1-16.7 4.8-22.5 6-5.8 1.1-14.5 2.5-19.5 3.1-4.9 0.5-14.1 1-20.2 1-6.2 0-15.7-0.5-21-1.1-5.4-0.5-14.3-1.9-19.8-3.1-5.5-1.1-15.4-3.8-22-5.9-6.6-2.2-17.8-6.8-25-10.3-7.1-3.5-17-9.1-22-12.3-4.9-3.3-13-9.3-18-13.5-4.9-4.1-12.4-11.1-16.6-15.4-4.1-4.4-10-11-13.1-14.9-3.1-3.9-8.2-11-11.4-16-3.2-5-8.6-14.9-12-22-3.4-7.1-7.6-17.3-9.3-22.5-1.7-5.2-3.7-12.4-4.5-16-0.9-3.6-2.4-11.9-3.6-18.5-1.4-8.6-2-16.5-2-28 0-10.9 0.6-20 2-28.5 1-6.9 3.1-17 4.5-22.5 1.5-5.5 4.2-14.3 6.2-19.5 2-5.2 5.8-14 8.5-19.5 2.8-5.5 7.5-13.8 10.5-18.5 3.1-4.7 8.4-12.1 11.8-16.5 3.4-4.4 11.2-12.7 17.1-18.5 6-5.8 13.6-12.6 16.9-15.1 3.3-2.6 10.1-7.3 15-10.5 5-3.2 14.9-8.6 22-12 7.2-3.4 18-7.8 24-9.7 6.1-1.9 15.7-4.4 21.5-5.6 5.8-1.1 14.6-2.5 19.5-3.1 5.5-0.6 50.5-1 220.5-1v-105.5c0-67.6 0.4-109 1.1-115.3 0.5-5.3 1.9-14.2 3.1-19.7 1.1-5.5 3.8-15.4 5.9-22 2.2-6.6 6.7-17.6 10-24.5 3.3-6.9 8.6-16.3 11.6-21 3.1-4.7 8.4-12.1 11.8-16.5 3.4-4.4 11.2-12.7 17.1-18.5 6-5.8 13.6-12.6 16.9-15.1 3.3-2.6 10.1-7.3 15-10.5 5-3.2 14.9-8.6 22-12 7.2-3.4 18-7.8 24-9.7 6.1-1.9 16-4.5 22-5.6 6.1-1.1 13-2.5 15.5-3 2.5-0.5 12.7-0.9 22.8-1zm399.5 400c7 0 17.1 0.4 22.5 1 5.3 0.5 14.2 1.9 19.7 3.1 5.5 1.1 15.4 3.8 22 5.9 6.6 2.2 17.6 6.7 24.5 10 6.9 3.3 16.3 8.6 21 11.6 4.7 3.1 12.1 8.4 16.5 11.8 4.4 3.4 12.7 11.2 18.5 17.1 5.8 6 12.6 13.6 15.1 16.9 2.6 3.3 7.3 10 10.5 15 3.2 4.9 8.6 14.8 12 22 3.4 7.1 7.6 17.3 9.3 22.5 1.7 5.2 3.7 12.4 4.5 16 0.9 3.6 2.4 11.9 3.6 18.5 1.4 8.6 2 16.5 2 28 0 10.9-0.6 20-2 28.5-1 6.9-3.1 17-4.5 22.5-1.5 5.5-4.2 14.3-6.2 19.5-1.9 5.2-6 14.5-9.1 20.5-3.1 6-8.2 14.8-11.2 19.5-3.1 4.7-8 11.4-11 15-2.9 3.6-8.5 9.8-12.4 13.9-3.9 4-11.1 10.7-16.1 14.9-4.9 4.2-13 10.2-18 13.5-4.9 3.2-14.8 8.8-22 12.3-7.2 3.5-18.4 8.1-25 10.3-6.6 2.1-16.7 4.8-22.5 6-5.8 1.1-14.5 2.5-19.5 3.1-5.5 0.6-50.5 1-220.5 1v105.5c0 67.6-0.4 109-1.1 115.2-0.5 5.4-1.9 14.3-3.1 19.8-1.1 5.5-3.8 15.4-5.9 22-2.2 6.6-6.8 17.8-10.3 25-3.5 7.2-9.1 17-12.3 22-3.3 5-9.3 13-13.5 18-4.2 5-10.9 12.2-14.9 16.1-4.1 3.9-10.3 9.5-13.9 12.4-3.6 3-10.3 7.9-15 11-4.7 3-13.4 8.1-19.5 11.2-6 3.1-15.3 7.2-20.5 9.1-5.2 2-14 4.7-19.5 6.1-5.5 1.4-15.3 3.5-21.7 4.6-8.7 1.5-16.3 2-28.8 2-12.3 0-20.3-0.5-28.7-2-6.5-1.1-16.3-3.1-21.8-4.5-5.5-1.5-14.3-4.2-19.5-6.2-5.2-1.9-14.4-6-20.5-9.1-6-3.1-14.8-8.2-19.5-11.2-4.7-3.1-12.5-9-17.5-13.2-4.9-4.1-12.4-11.1-16.6-15.4-4.1-4.4-10-11.1-13.1-14.9-3.1-3.8-8.2-11-11.4-16-3.2-5-8.6-14.8-12-22-3.4-7.2-7.8-18-9.7-24-1.9-6-4.4-15.7-5.6-21.5-1.1-5.8-2.5-14.5-3.1-19.5-0.5-5-1-14.1-1-20.3 0-6.1 0.5-15.6 1.1-21 0.5-5.3 1.9-14.2 3.1-19.7 1.1-5.5 3.8-15.4 5.9-22 2.2-6.6 6.7-17.6 10-24.5 3.3-6.9 8.6-16.3 11.6-21 3.1-4.7 8.4-12.1 11.8-16.5 3.4-4.4 11.2-12.7 17.1-18.5 6-5.8 13.6-12.6 16.9-15.1 3.3-2.6 10.1-7.3 15-10.5 5-3.2 14.9-8.6 22-12 7.2-3.4 18-7.8 24-9.7 6.1-1.9 15.7-4.4 21.5-5.5 5.8-1.1 11.9-2.4 13.5-2.7 1.7-0.4 34.3-1.1 72.5-1.4 67.1-0.7 69.8-0.8 78-3 4.7-1.2 13.5-4.6 19.5-7.5 6.2-3 14.3-8 18.5-11.3 4.1-3.3 9.8-8.7 12.6-11.9 2.8-3.2 7.2-9.1 9.7-12.9 2.5-3.9 5.9-10.2 7.6-14 1.6-3.9 4-10.8 5.2-15.5 2.2-8.3 2.3-10.4 2.9-77.5 0.6-57.4 0.9-70.5 2.3-78 0.9-5 2.8-13.5 4.2-19 1.5-5.5 4.2-14.3 6.2-19.5 2-5.2 5.8-14 8.5-19.5 2.8-5.5 7.5-13.8 10.5-18.5 3.1-4.7 8.4-12.1 11.8-16.5 3.4-4.4 11.2-12.7 17.1-18.5 6-5.8 13.6-12.6 16.9-15.1 3.3-2.6 10.1-7.3 15-10.5 5-3.2 14.9-8.6 22-12 7.2-3.4 18-7.8 24-9.7 6.1-1.9 15.7-4.5 21.5-5.6 5.8-1.2 13.9-2.5 18-3 4.1-0.5 13.2-0.9 20.3-1zm-514.3 93.9h68l1.8 6.2c1.1 3.5 11.5 36.2 23.2 72.8 11.7 36.6 21.5 66.7 21.7 67 0.2 0.3 0.7 0 1.1-0.7 0.4-0.6 11.1-33.6 46.7-145.3h67.5v213h-51v-27.8c0-15.2 0.9-45.2 2-66.7 1.1-21.5 2-41.9 2-45.5 0-3.6-0.3-6.1-0.7-5.7-0.4 0.5-11.8 33.3-49.9 145.2l-17.2 0.2c-9.5 0.2-17.2 0.2-17.2 0 0-0.1-11-32.8-24.6-72.7-13.5-39.9-25-73.2-25.5-74-0.6-1-0.8-0.2-0.9 2.5 0 2.2 1.1 26.3 2.5 53.5 1.4 27.2 2.5 58.8 2.5 91h-52z"/></svg>