<svg version="1.2" xmlns="http://www.w3.org/2000/svg" viewBox="0 0 600 600" width="600" height="600"><style>.a{fill:#f0eeeb}.b{fill:#3d3c3c}</style><path class="a" d="m0 300v300h600v-600h-600z"/><path class="b" d="m286 164.1c-2.5 0.5-6.8 1.6-9.5 2.5-2.8 0.9-8.6 3.5-13 5.7-6 3.1-10.2 6.3-16.6 12.7-5.7 5.6-10 11-12.7 16-2.3 4.1-5.4 11.1-6.8 15.5-1.9 5.8-2.8 11-3.1 19-0.5 8.3-0.2 13 1.1 19 1 4.7 3.8 12.3 6.8 18.5 4.4 9.1 6.3 11.7 13.7 19.1 4.7 4.7 11.3 10.1 14.6 12 3.3 1.9 8.5 4.5 11.5 5.7 3 1.2 8.4 2.8 12 3.7 3.6 0.8 10.7 1.5 15.8 1.5 5 0 12.5-0.7 16.5-1.6 3.9-0.8 11.9-3.8 17.7-6.6 9.1-4.4 11.7-6.3 19.1-13.7 5.8-5.8 10-11.1 12.8-16.1 2.2-4.1 5.3-11.1 6.8-15.5 2.4-7.1 2.7-9.5 2.7-22 0.1-12-0.2-15.1-2.3-21.5-1.3-4.1-3.4-9.7-4.8-12.5-1.4-2.7-4.4-7.7-6.8-11-2.3-3.3-6.9-8.5-10.3-11.5-3.3-3-8.4-7-11.4-8.7-2.9-1.8-8.2-4.5-11.8-5.9-3.6-1.5-9.4-3.3-13-4-3.6-0.8-10.6-1.3-15.5-1.3-4.9 0.1-11 0.5-13.5 1zm-54.7 146.9c-3.2 1.9-8.5 5.6-11.8 8-3.3 2.5-9.2 7.2-13 10.6-3.8 3.4-9.7 9.4-13 13.3-3.3 4-8.2 10.5-10.8 14.4-2.7 4-6.5 10.8-8.6 15.2-2.1 4.4-5 11.4-6.4 15.5-1.3 4.1-3.2 12-4.1 17.5-1.1 6.1-1.6 13.9-1.4 20l0.3 10c49.6 1 98 1.2 139.5 1.2 41.5 0 89-0.3 105.5-0.6l30-0.6c0.4-16.5-0.1-24.6-0.9-29.5-0.8-4.7-2.7-12.3-4.2-17-1.4-4.7-4.6-12.6-7.1-17.5-2.5-4.9-6.4-11.7-8.6-15-2.2-3.3-7-9.5-10.6-13.9-3.6-4.3-10.2-11-14.6-14.8-4.4-3.9-12.6-10.1-18.2-13.9l-10.3-6.9c-11.2 8.6-18.1 12.9-22.5 15-4.4 2.2-11.6 4.9-16 6.2-6.8 1.8-10.5 2.2-24.5 2.2-14 0-17.7-0.4-24.5-2.2-4.4-1.3-11.6-4-16-6.1-4.4-2.2-11.2-6.3-15.2-9.3l-7.2-5.5z"/></svg>